<?xml version="1.0" encoding="utf-8"?>
<!-- Generator: Adobe Illustrator 24.2.0, SVG Export Plug-In . SVG Version: 6.00 Build 0)  -->
<svg version="1.1" id="Calque_1" xmlns="http://www.w3.org/2000/svg" xmlns:xlink="http://www.w3.org/1999/xlink" x="0px" y="0px"
	 viewBox="0 0 220 76.38" style="enable-background:new 0 0 220 76.38;" xml:space="preserve">
<style type="text/css">
	.st0{fill:#212121;}
	.st1{fill:#779364;}
</style>
<g>
	<g>
		<path class="st0" d="M59.6,62.76h-3.2v2.17h3.76v1.34h-5.43v-8.09h5.41v1.35h-3.75v1.93h3.2V62.76z M57.86,55.99h1.75l-1.54,1.72
			h-1.31L57.86,55.99z"/>
		<path class="st0" d="M68.62,63.57c-0.06,0.87-0.38,1.56-0.96,2.06c-0.58,0.5-1.34,0.75-2.29,0.75c-1.04,0-1.85-0.35-2.45-1.05
			c-0.59-0.7-0.89-1.66-0.89-2.88v-0.5c0-0.78,0.14-1.46,0.41-2.06s0.67-1.05,1.18-1.37c0.51-0.32,1.1-0.48,1.78-0.48
			c0.93,0,1.69,0.25,2.26,0.75c0.57,0.5,0.9,1.2,0.99,2.11h-1.67c-0.04-0.52-0.19-0.9-0.44-1.14s-0.63-0.35-1.14-0.35
			c-0.56,0-0.97,0.2-1.25,0.6s-0.42,1.02-0.43,1.85v0.61c0,0.87,0.13,1.51,0.4,1.92c0.26,0.4,0.68,0.61,1.25,0.61
			c0.51,0,0.9-0.12,1.15-0.35c0.25-0.24,0.4-0.6,0.44-1.09H68.62z"/>
		<path class="st0" d="M77.45,66.27h-1.67V62.8h-3.25v3.47h-1.67v-8.09h1.67v3.28h3.25v-3.28h1.67V66.27z"/>
		<path class="st0" d="M84.71,64.6h-2.92l-0.56,1.67h-1.77l3.01-8.09h1.55l3.03,8.09h-1.77L84.71,64.6z M82.24,63.25h2.02
			l-1.02-3.03L82.24,63.25z"/>
		<path class="st0" d="M95.52,66.27h-1.67l-3.25-5.33v5.33h-1.67v-8.09h1.67l3.25,5.34v-5.34h1.66V66.27z"/>
		<path class="st0" d="M104.52,65.24c-0.3,0.36-0.72,0.64-1.27,0.84c-0.55,0.2-1.16,0.3-1.82,0.3c-0.7,0-1.31-0.15-1.84-0.46
			c-0.53-0.31-0.94-0.75-1.22-1.33c-0.29-0.58-0.43-1.27-0.44-2.05v-0.55c0-0.81,0.14-1.51,0.41-2.1c0.27-0.59,0.67-1.04,1.18-1.36
			c0.51-0.31,1.11-0.47,1.8-0.47c0.96,0,1.71,0.23,2.25,0.69c0.54,0.46,0.86,1.12,0.96,2h-1.62c-0.07-0.46-0.24-0.8-0.49-1.02
			c-0.25-0.22-0.6-0.32-1.05-0.32c-0.57,0-1,0.21-1.3,0.64c-0.3,0.43-0.45,1.06-0.45,1.9v0.52c0,0.85,0.16,1.49,0.48,1.92
			c0.32,0.43,0.8,0.65,1.42,0.65c0.63,0,1.07-0.13,1.34-0.4v-1.4h-1.52v-1.23h3.19V65.24z"/>
		<path class="st0" d="M111.88,62.76h-3.2v2.17h3.76v1.34h-5.43v-8.09h5.41v1.35h-3.75v1.93h3.2V62.76z"/>
		<path class="st0" d="M118.75,64.14c0-0.31-0.11-0.56-0.33-0.73c-0.22-0.17-0.62-0.35-1.2-0.53c-0.58-0.19-1.04-0.37-1.37-0.55
			c-0.92-0.5-1.38-1.17-1.38-2.01c0-0.44,0.12-0.83,0.37-1.17c0.25-0.34,0.6-0.61,1.06-0.8c0.46-0.19,0.98-0.29,1.55-0.29
			c0.58,0,1.09,0.1,1.55,0.31c0.45,0.21,0.8,0.51,1.05,0.89c0.25,0.38,0.38,0.82,0.38,1.3h-1.67c0-0.37-0.12-0.66-0.35-0.86
			c-0.23-0.21-0.56-0.31-0.98-0.31c-0.41,0-0.72,0.09-0.95,0.26c-0.23,0.17-0.34,0.4-0.34,0.68c0,0.26,0.13,0.48,0.4,0.66
			s0.65,0.34,1.17,0.5c0.95,0.28,1.64,0.64,2.07,1.06c0.43,0.42,0.65,0.95,0.65,1.58c0,0.7-0.27,1.25-0.8,1.65
			c-0.53,0.4-1.24,0.6-2.14,0.6c-0.62,0-1.19-0.11-1.7-0.34c-0.51-0.23-0.9-0.54-1.17-0.94c-0.27-0.4-0.4-0.86-0.4-1.38h1.67
			c0,0.89,0.53,1.34,1.6,1.34c0.4,0,0.71-0.08,0.93-0.24C118.64,64.66,118.75,64.43,118.75,64.14z"/>
		<path class="st0" d="M131.54,62.76h-3.2v2.17h3.76v1.34h-5.43v-8.09h5.42v1.35h-3.75v1.93h3.2V62.76z"/>
		<path class="st0" d="M140.42,59.52h-2.48v6.74h-1.67v-6.74h-2.45v-1.35h6.59V59.52z"/>
		<path class="st0" d="M151.02,62.76h-3.2v2.17h3.76v1.34h-5.43v-8.09h5.41v1.35h-3.75v1.93h3.2V62.76z"/>
		<path class="st0" d="M160.27,66.27h-1.67l-3.25-5.33v5.33h-1.67v-8.09h1.67l3.25,5.34v-5.34h1.66V66.27z"/>
		<path class="st0" d="M169.22,63.57c-0.06,0.87-0.38,1.56-0.96,2.06c-0.58,0.5-1.34,0.75-2.29,0.75c-1.04,0-1.85-0.35-2.45-1.05
			c-0.59-0.7-0.89-1.66-0.89-2.88v-0.5c0-0.78,0.14-1.46,0.41-2.06c0.27-0.59,0.67-1.05,1.18-1.37c0.51-0.32,1.1-0.48,1.78-0.48
			c0.93,0,1.69,0.25,2.26,0.75c0.57,0.5,0.9,1.2,0.99,2.11h-1.67c-0.04-0.52-0.19-0.9-0.44-1.14c-0.25-0.24-0.63-0.35-1.14-0.35
			c-0.56,0-0.97,0.2-1.25,0.6c-0.28,0.4-0.42,1.02-0.43,1.85v0.61c0,0.87,0.13,1.51,0.4,1.92c0.27,0.4,0.68,0.61,1.25,0.61
			c0.51,0,0.9-0.12,1.15-0.35c0.25-0.24,0.4-0.6,0.44-1.09H169.22z"/>
		<path class="st0" d="M178.04,66.27h-1.67V62.8h-3.25v3.47h-1.67v-8.09h1.67v3.28h3.25v-3.28h1.67V66.27z"/>
		<path class="st0" d="M185.51,62.76h-3.2v2.17h3.76v1.34h-5.43v-8.09h5.41v1.35h-3.75v1.93h3.2V62.76z M184.25,57.71h-1.32
			l-1.53-1.72h1.75L184.25,57.71z"/>
		<path class="st0" d="M191.18,63.3h-1.33v2.96h-1.67v-8.09h3.01c0.96,0,1.69,0.21,2.21,0.64c0.52,0.43,0.78,1.03,0.78,1.81
			c0,0.55-0.12,1.01-0.36,1.38c-0.24,0.37-0.6,0.66-1.09,0.88l1.75,3.31v0.08h-1.79L191.18,63.3z M189.85,61.95h1.35
			c0.42,0,0.74-0.11,0.97-0.32c0.23-0.21,0.34-0.51,0.34-0.88c0-0.38-0.11-0.68-0.33-0.9c-0.22-0.22-0.55-0.33-1-0.33h-1.34V61.95z"
			/>
		<path class="st0" d="M201.46,62.76h-3.2v2.17h3.76v1.34h-5.43v-8.09H202v1.35h-3.75v1.93h3.2V62.76z"/>
		<path class="st0" d="M208.33,64.14c0-0.31-0.11-0.56-0.33-0.73c-0.22-0.17-0.62-0.35-1.2-0.53c-0.58-0.19-1.04-0.37-1.37-0.55
			c-0.92-0.5-1.38-1.17-1.38-2.01c0-0.44,0.12-0.83,0.37-1.17c0.25-0.34,0.6-0.61,1.06-0.8c0.46-0.19,0.98-0.29,1.55-0.29
			c0.58,0,1.09,0.1,1.54,0.31c0.45,0.21,0.8,0.51,1.05,0.89c0.25,0.38,0.38,0.82,0.38,1.3h-1.67c0-0.37-0.12-0.66-0.35-0.86
			c-0.23-0.21-0.56-0.31-0.98-0.31c-0.41,0-0.72,0.09-0.95,0.26c-0.23,0.17-0.34,0.4-0.34,0.68c0,0.26,0.13,0.48,0.4,0.66
			c0.26,0.18,0.65,0.34,1.17,0.5c0.95,0.28,1.64,0.64,2.07,1.06c0.43,0.42,0.65,0.95,0.65,1.58c0,0.7-0.27,1.25-0.79,1.65
			c-0.53,0.4-1.24,0.6-2.14,0.6c-0.62,0-1.19-0.11-1.7-0.34c-0.51-0.23-0.9-0.54-1.17-0.94c-0.27-0.4-0.4-0.86-0.4-1.38h1.67
			c0,0.89,0.53,1.34,1.6,1.34c0.4,0,0.71-0.08,0.93-0.24C208.21,64.66,208.33,64.43,208.33,64.14z"/>
	</g>
	<g>
		<path class="st0" d="M22.15,53.67l-0.05-0.01c-1.11-0.11-3.08-0.87-3.85-1.65l-1.42-1.42c-0.48-0.48-1.11-0.74-1.78-0.74v-5.05
			c0-1.39-1.13-2.52-2.52-2.52S10,43.42,10,44.81v8.57c0,3.11,1.75,5.95,4.53,7.34l3.04,1.52v3.4c0,0.35,0.28,0.63,0.63,0.63h6.69
			c0.35,0,0.63-0.28,0.63-0.63V57.4C25.52,55.47,24.07,53.86,22.15,53.67z M24.26,65.01h-5.43v-3.16c0-0.24-0.14-0.46-0.35-0.56
			l-3.39-1.69c-2.37-1.18-3.84-3.56-3.84-6.21v-8.57c0-0.7,0.57-1.26,1.26-1.26c0.7,0,1.26,0.57,1.26,1.26v5.39
			c-0.77,0.45-1.26,1.27-1.26,2.19c0,0.67,0.26,1.31,0.74,1.78l3.23,3.23c0.25,0.25,0.65,0.25,0.89,0c0.25-0.25,0.25-0.65,0-0.89
			l-3.23-3.23c-0.24-0.24-0.37-0.56-0.37-0.89c0-0.53,0.34-1.01,0.84-1.19c0,0,0,0,0,0c0,0,0,0,0,0c0.44-0.15,0.95-0.06,1.31,0.3
			l1.42,1.42c1.46,1.46,4.66,2.01,4.67,2.02c1.28,0.13,2.24,1.19,2.24,2.47V65.01z"/>
		<path class="st0" d="M42.27,42.29c-1.37,0.02-2.48,1.15-2.48,2.52v5.05c-0.67,0-1.31,0.26-1.79,0.74l-1.42,1.42
			c-0.78,0.78-2.74,1.54-3.85,1.65l-0.05,0.01c-1.92,0.19-3.37,1.8-3.37,3.73v8.24c0,0.35,0.28,0.63,0.63,0.63h6.69
			c0.35,0,0.63-0.28,0.63-0.63v-3.4l3.04-1.52c0.21-0.11,0.42-0.22,0.62-0.34c0.34-0.21,0.41-0.67,0.15-0.96l0,0
			c-0.2-0.23-0.54-0.28-0.8-0.12c-0.17,0.1-0.35,0.2-0.53,0.29l-3.39,1.69C36.13,61.39,36,61.61,36,61.85v3.15h-5.43V57.4
			c0-1.28,0.96-2.35,2.24-2.47c0.01,0,3.2-0.55,4.67-2.02l1.42-1.42c0.36-0.36,0.88-0.45,1.31-0.3c0,0,0,0,0,0
			c0.25,0.09,0.46,0.25,0.61,0.46c0.15,0.21,0.23,0.46,0.23,0.73c0,0.34-0.13,0.65-0.37,0.89l-3.23,3.23
			c-0.27,0.27-0.24,0.71,0.06,0.95c0.25,0.2,0.62,0.15,0.84-0.07l3.22-3.22c0.48-0.48,0.74-1.11,0.74-1.79
			c0-0.91-0.49-1.74-1.26-2.19v-5.39c0-0.74,0.64-1.33,1.39-1.26c0.65,0.06,1.14,0.64,1.14,1.29v8.53c0,1.75-0.64,3.38-1.76,4.63
			c-0.22,0.24-0.22,0.6-0.01,0.84h0c0.25,0.28,0.68,0.29,0.93,0.01c1.33-1.48,2.1-3.42,2.1-5.48v-8.51
			C44.83,43.46,43.68,42.27,42.27,42.29z"/>
		<path class="st0" d="M18.87,29.8c-1.09,0.59-1.7,1.38-1.86,2.4c-0.88,0.27-1.49,1.09-1.49,2.02c0,0.91,0.59,1.72,1.45,2.01v11.56
			c0,0.68,0.56,1.24,1.24,1.24h1.48c0.68,0,1.24-0.56,1.24-1.24v-1.66h13.53v1.66c0,0.68,0.56,1.24,1.24,1.24h1.48
			c0.68,0,1.24-0.56,1.24-1.24V36.23c0.86-0.28,1.45-1.1,1.45-2.01c0-0.93-0.61-1.75-1.49-2.02c-0.16-1.02-0.77-1.81-1.86-2.4
			c0.12-3.13,0.69-10.88,3.3-16.7c0.22-0.48,0.23-1.02,0.04-1.51c-0.19-0.49-0.56-0.89-1.04-1.1c-0.48-0.21-1.01-0.23-1.51-0.04
			c-0.5,0.19-0.89,0.56-1.1,1.03c-0.17,0.38-0.34,0.77-0.5,1.18H24.35c-0.37,0-0.66,0.3-0.66,0.66c0,0.37,0.3,0.66,0.66,0.66H35.2
			c-0.15,0.42-0.29,0.86-0.42,1.3H20.6c-0.13-0.44-0.28-0.87-0.42-1.3h1.92c0.37,0,0.66-0.3,0.66-0.66c0-0.37-0.3-0.66-0.66-0.66
			h-2.41c-0.16-0.41-0.33-0.8-0.5-1.18c-0.44-0.98-1.64-1.43-2.62-1c-1,0.45-1.44,1.62-1,2.62C18.18,18.91,18.75,26.67,18.87,29.8z
			 M37.08,36.33V47.7h-1.3V36.33H37.08z M34.45,43.5v1.3H20.92v-1.3H34.45z M34.45,36.33v5.83H20.92v-5.83H34.45z M19.59,36.33V47.7
			h-1.3V36.33H19.59z M17.97,12.02c1.36,3.02,2.32,6.61,2.93,10.95c0,0.02,0.01,0.04,0.01,0.06c0.27,1.91,0.45,3.89,0.55,5.89
			c-0.47,0.1-0.9,0.21-1.29,0.33c-0.08-1.62-0.25-4.06-0.67-6.78c-0.6-3.89-1.51-7.23-2.72-9.93v0c-0.15-0.33,0-0.71,0.33-0.86
			c0.16-0.07,0.33-0.07,0.5-0.01C17.77,11.74,17.9,11.86,17.97,12.02z M38.59,12.55c-1.21,2.69-2.12,6.03-2.72,9.93
			c-0.42,2.71-0.59,5.16-0.67,6.78c-0.39-0.12-0.83-0.24-1.29-0.33c0.1-1.99,0.28-3.98,0.55-5.89c0-0.02,0.01-0.04,0.01-0.06
			c0.62-4.35,1.58-7.93,2.93-10.96v0c0.07-0.15,0.2-0.27,0.36-0.34c0.17-0.06,0.34-0.06,0.5,0.01c0.16,0.07,0.28,0.2,0.34,0.36
			C38.67,12.22,38.66,12.39,38.59,12.55z M33.05,23.55c-0.22,1.69-0.37,3.42-0.46,5.16c-1.37-0.18-2.97-0.27-4.9-0.27
			c-1.92,0-3.53,0.09-4.9,0.27c-0.09-1.74-0.24-3.47-0.46-5.16H33.05z M33.45,20.92c-0.07,0.43-0.15,0.86-0.21,1.3h-11.1
			c-0.07-0.44-0.14-0.87-0.21-1.3H33.45z M33.7,19.59H21.68c-0.21-1.02-0.44-2.02-0.7-2.98h13.41C34.14,17.56,33.9,18.56,33.7,19.59
			z M33.09,32.77c0-0.37-0.3-0.66-0.66-0.66H18.39c0.57-1.53,3.77-2.34,9.3-2.34s8.73,0.81,9.3,2.34h-2.3
			c-0.37,0-0.66,0.3-0.66,0.66c0,0.37,0.3,0.66,0.66,0.66h3.07c0.43,0,0.78,0.35,0.78,0.78c0,0.43-0.35,0.78-0.78,0.78H17.63
			c-0.43,0-0.78-0.35-0.78-0.78c0-0.43,0.35-0.78,0.78-0.78h14.8C32.79,33.44,33.09,33.14,33.09,32.77z"/>
	</g>
	<g>
		<path class="st1" d="M58.44,25.84h7.79v2.95H54.77V10.98h3.67V25.84z"/>
		<path class="st1" d="M74.2,29.03c-1.94,0-3.52-0.6-4.74-1.79c-1.22-1.19-1.83-2.78-1.83-4.76v-0.34c0-1.33,0.26-2.52,0.77-3.57
			c0.51-1.05,1.24-1.86,2.18-2.42c0.94-0.57,2.02-0.85,3.22-0.85c1.81,0,3.24,0.57,4.28,1.71c1.04,1.14,1.56,2.76,1.56,4.86v1.44
			h-8.43c0.11,0.86,0.46,1.56,1.03,2.08c0.57,0.52,1.3,0.78,2.18,0.78c1.36,0,2.43-0.49,3.19-1.48l1.74,1.94
			c-0.53,0.75-1.25,1.34-2.15,1.76C76.3,28.82,75.3,29.03,74.2,29.03z M73.79,18.16c-0.7,0-1.27,0.24-1.71,0.71
			c-0.44,0.48-0.72,1.15-0.84,2.04h4.92v-0.28c-0.02-0.79-0.23-1.39-0.64-1.82C75.12,18.37,74.54,18.16,73.79,18.16z"/>
		<path class="st1" d="M88.81,25.13c0-0.43-0.21-0.77-0.64-1.02c-0.43-0.25-1.12-0.47-2.06-0.67c-3.15-0.66-4.72-2-4.72-4.01
			c0-1.17,0.49-2.15,1.46-2.94c0.97-0.79,2.25-1.18,3.82-1.18c1.68,0,3.02,0.4,4.03,1.19c1.01,0.79,1.51,1.82,1.51,3.08h-3.54
			c0-0.51-0.16-0.92-0.49-1.25c-0.33-0.33-0.84-0.5-1.53-0.5c-0.6,0-1.06,0.13-1.38,0.4c-0.33,0.27-0.49,0.61-0.49,1.03
			c0,0.39,0.19,0.71,0.56,0.95c0.37,0.24,1,0.45,1.88,0.62c0.88,0.18,1.62,0.37,2.23,0.59c1.87,0.69,2.8,1.87,2.8,3.56
			c0,1.21-0.52,2.18-1.55,2.93c-1.04,0.75-2.37,1.12-4.01,1.12c-1.11,0-2.09-0.2-2.95-0.59c-0.86-0.4-1.54-0.94-2.02-1.63
			c-0.49-0.69-0.73-1.43-0.73-2.23h3.35c0.03,0.63,0.27,1.11,0.7,1.44c0.43,0.33,1.01,0.5,1.74,0.5c0.68,0,1.19-0.13,1.54-0.39
			C88.64,25.88,88.81,25.55,88.81,25.13z"/>
		<path class="st1" d="M100.22,22.05c0-1.31,0.25-2.48,0.76-3.51c0.51-1.03,1.23-1.82,2.18-2.39c0.95-0.56,2.05-0.84,3.31-0.84
			c1.79,0,3.24,0.55,4.37,1.64c1.13,1.09,1.76,2.58,1.89,4.45l0.02,0.91c0,2.03-0.57,3.66-1.7,4.89c-1.13,1.23-2.65,1.84-4.56,1.84
			s-3.43-0.61-4.57-1.84c-1.14-1.22-1.71-2.89-1.71-4.99V22.05z M103.75,22.3c0,1.26,0.24,2.22,0.71,2.89c0.47,0.67,1.15,1,2.03,1
			c0.86,0,1.53-0.33,2.01-0.99c0.48-0.66,0.72-1.71,0.72-3.15c0-1.23-0.24-2.19-0.72-2.87c-0.48-0.68-1.16-1.02-2.03-1.02
			c-0.87,0-1.53,0.34-2.01,1.01C103.99,19.84,103.75,20.89,103.75,22.3z"/>
		<path class="st1" d="M126.86,22.29c0,2.12-0.45,3.77-1.36,4.96c-0.91,1.19-2.17,1.78-3.79,1.78c-1.44,0-2.58-0.55-3.44-1.65
			l-0.16,1.41h-3.18V10h3.54v6.74c0.81-0.95,1.89-1.43,3.22-1.43c1.61,0,2.88,0.59,3.8,1.78c0.92,1.19,1.38,2.86,1.38,5.01V22.29z
			 M123.32,22.04c0-1.34-0.21-2.31-0.64-2.93c-0.42-0.62-1.06-0.92-1.9-0.92c-1.13,0-1.9,0.46-2.32,1.38v5.22
			c0.43,0.93,1.21,1.39,2.35,1.39c1.14,0,1.89-0.56,2.25-1.69C123.24,23.96,123.32,23.14,123.32,22.04z"/>
		<path class="st1" d="M132.78,15.55v13.96c0,1.46-0.39,2.6-1.16,3.41c-0.78,0.81-1.89,1.22-3.35,1.22c-0.61,0-1.2-0.07-1.75-0.21
			v-2.8c0.42,0.07,0.8,0.11,1.11,0.11c1.07,0,1.6-0.57,1.6-1.7V15.55H132.78z M128.95,12.13c0-0.53,0.18-0.97,0.53-1.31
			c0.36-0.34,0.84-0.51,1.45-0.51s1.1,0.17,1.45,0.51c0.36,0.34,0.53,0.78,0.53,1.31c0,0.54-0.18,0.98-0.54,1.32
			c-0.36,0.34-0.84,0.51-1.44,0.51s-1.07-0.17-1.44-0.51C129.13,13.11,128.95,12.67,128.95,12.13z"/>
		<path class="st1" d="M141.63,29.03c-1.94,0-3.52-0.6-4.74-1.79c-1.22-1.19-1.83-2.78-1.83-4.76v-0.34c0-1.33,0.26-2.52,0.77-3.57
			s1.24-1.86,2.18-2.42c0.94-0.57,2.02-0.85,3.22-0.85c1.81,0,3.23,0.57,4.28,1.71c1.04,1.14,1.56,2.76,1.56,4.86v1.44h-8.43
			c0.11,0.86,0.46,1.56,1.03,2.08c0.57,0.52,1.3,0.78,2.18,0.78c1.36,0,2.43-0.49,3.19-1.48l1.74,1.94
			c-0.53,0.75-1.25,1.34-2.15,1.76C143.74,28.82,142.73,29.03,141.63,29.03z M141.23,18.16c-0.7,0-1.27,0.24-1.71,0.71
			c-0.44,0.48-0.72,1.15-0.84,2.04h4.92v-0.28c-0.02-0.79-0.23-1.39-0.64-1.82C142.56,18.37,141.98,18.16,141.23,18.16z"/>
		<path class="st1" d="M153.32,12.3v3.25h2.26v2.59h-2.26v6.61c0,0.49,0.09,0.84,0.28,1.05c0.19,0.21,0.55,0.32,1.08,0.32
			c0.39,0,0.74-0.03,1.04-0.09v2.68c-0.69,0.21-1.41,0.32-2.14,0.32c-2.48,0-3.74-1.25-3.79-3.76v-7.13h-1.93v-2.59h1.93V12.3
			H153.32z"/>
		<path class="st1" d="M164.72,25.13c0-0.43-0.21-0.77-0.64-1.02c-0.43-0.25-1.12-0.47-2.06-0.67c-3.15-0.66-4.72-2-4.72-4.01
			c0-1.17,0.49-2.15,1.46-2.94c0.97-0.79,2.25-1.18,3.82-1.18c1.68,0,3.02,0.4,4.03,1.19c1.01,0.79,1.51,1.82,1.51,3.08h-3.54
			c0-0.51-0.16-0.92-0.49-1.25c-0.33-0.33-0.84-0.5-1.53-0.5c-0.6,0-1.06,0.13-1.38,0.4c-0.33,0.27-0.49,0.61-0.49,1.03
			c0,0.39,0.19,0.71,0.56,0.95c0.37,0.24,1,0.45,1.88,0.62c0.88,0.18,1.62,0.37,2.23,0.59c1.87,0.69,2.8,1.87,2.8,3.56
			c0,1.21-0.52,2.18-1.55,2.93c-1.04,0.75-2.37,1.12-4.01,1.12c-1.11,0-2.09-0.2-2.95-0.59c-0.86-0.4-1.54-0.94-2.02-1.63
			c-0.49-0.69-0.73-1.43-0.73-2.23h3.35c0.03,0.63,0.27,1.11,0.7,1.44c0.43,0.33,1.01,0.5,1.74,0.5c0.68,0,1.19-0.13,1.54-0.39
			S164.72,25.55,164.72,25.13z"/>
		<path class="st1" d="M61.71,46.93c0-0.43-0.21-0.77-0.64-1.02c-0.43-0.25-1.12-0.47-2.06-0.67c-3.15-0.66-4.72-2-4.72-4.01
			c0-1.17,0.49-2.15,1.46-2.94c0.97-0.79,2.25-1.18,3.82-1.18c1.68,0,3.02,0.4,4.03,1.19c1.01,0.79,1.51,1.82,1.51,3.08h-3.54
			c0-0.51-0.16-0.92-0.49-1.25c-0.33-0.33-0.84-0.5-1.53-0.5c-0.6,0-1.06,0.13-1.38,0.4c-0.33,0.27-0.49,0.61-0.49,1.03
			c0,0.39,0.19,0.71,0.56,0.95c0.37,0.24,1,0.45,1.88,0.62c0.88,0.18,1.62,0.37,2.23,0.59c1.87,0.69,2.8,1.87,2.8,3.56
			c0,1.21-0.52,2.18-1.55,2.93c-1.04,0.75-2.37,1.12-4.01,1.12c-1.11,0-2.09-0.2-2.95-0.59c-0.86-0.4-1.54-0.94-2.02-1.63
			c-0.49-0.69-0.73-1.43-0.73-2.23h3.35c0.03,0.63,0.27,1.11,0.7,1.44c0.43,0.33,1.01,0.5,1.74,0.5c0.68,0,1.19-0.13,1.54-0.39
			C61.53,47.68,61.71,47.35,61.71,46.93z"/>
		<path class="st1" d="M66.87,43.85c0-1.31,0.25-2.48,0.76-3.51c0.51-1.03,1.23-1.82,2.18-2.39c0.95-0.56,2.05-0.84,3.31-0.84
			c1.79,0,3.24,0.55,4.37,1.64c1.13,1.09,1.76,2.58,1.89,4.45l0.02,0.91c0,2.03-0.57,3.66-1.7,4.89c-1.13,1.23-2.65,1.84-4.56,1.84
			c-1.91,0-3.43-0.61-4.57-1.84c-1.14-1.22-1.71-2.89-1.71-4.99V43.85z M70.41,44.1c0,1.26,0.24,2.22,0.71,2.89
			c0.47,0.67,1.15,1,2.03,1c0.86,0,1.53-0.33,2.01-0.99s0.72-1.71,0.72-3.15c0-1.23-0.24-2.19-0.72-2.87
			c-0.48-0.68-1.16-1.02-2.03-1.02c-0.87,0-1.53,0.34-2.01,1.01C70.64,41.64,70.41,42.69,70.41,44.1z"/>
		<path class="st1" d="M84.84,37.35l0.11,1.53c0.95-1.18,2.21-1.77,3.8-1.77c1.4,0,2.45,0.41,3.13,1.24
			c0.69,0.82,1.04,2.06,1.05,3.69v8.55H89.4v-8.46c0-0.75-0.16-1.29-0.49-1.63c-0.33-0.34-0.87-0.51-1.63-0.51
			c-0.99,0-1.74,0.42-2.24,1.27v9.33h-3.53V37.35H84.84z"/>
		<path class="st1" d="M99.85,34.1v3.25h2.26v2.59h-2.26v6.61c0,0.49,0.09,0.84,0.28,1.05c0.19,0.21,0.55,0.32,1.08,0.32
			c0.39,0,0.74-0.03,1.04-0.09v2.68c-0.69,0.21-1.41,0.32-2.14,0.32c-2.48,0-3.74-1.25-3.79-3.76v-7.13h-1.93v-2.59h1.93V34.1H99.85
			z"/>
		<path class="st1" d="M113.57,37.35l0.11,1.53c0.95-1.18,2.21-1.77,3.8-1.77c1.4,0,2.45,0.41,3.13,1.24
			c0.69,0.82,1.04,2.06,1.05,3.69v8.55h-3.54v-8.46c0-0.75-0.16-1.29-0.49-1.63c-0.33-0.34-0.87-0.51-1.63-0.51
			c-0.99,0-1.74,0.42-2.24,1.27v9.33h-3.53V37.35H113.57z"/>
		<path class="st1" d="M123.8,43.85c0-1.31,0.25-2.48,0.76-3.51c0.51-1.03,1.23-1.82,2.18-2.39c0.95-0.56,2.05-0.84,3.31-0.84
			c1.79,0,3.24,0.55,4.37,1.64c1.13,1.09,1.76,2.58,1.89,4.45l0.02,0.91c0,2.03-0.57,3.66-1.7,4.89c-1.13,1.23-2.65,1.84-4.56,1.84
			c-1.91,0-3.43-0.61-4.57-1.84c-1.14-1.22-1.71-2.89-1.71-4.99V43.85z M127.33,44.1c0,1.26,0.24,2.22,0.71,2.89
			c0.47,0.67,1.15,1,2.03,1c0.86,0,1.52-0.33,2.01-0.99c0.48-0.66,0.72-1.71,0.72-3.15c0-1.23-0.24-2.19-0.72-2.87
			c-0.48-0.68-1.16-1.02-2.03-1.02c-0.86,0-1.53,0.34-2.01,1.01C127.57,41.64,127.33,42.69,127.33,44.1z"/>
		<path class="st1" d="M145.68,46.93c0-0.43-0.21-0.77-0.64-1.02c-0.43-0.25-1.11-0.47-2.06-0.67c-3.15-0.66-4.72-2-4.72-4.01
			c0-1.17,0.49-2.15,1.46-2.94c0.97-0.79,2.25-1.18,3.82-1.18c1.68,0,3.02,0.4,4.03,1.19c1.01,0.79,1.51,1.82,1.51,3.08h-3.53
			c0-0.51-0.16-0.92-0.49-1.25c-0.33-0.33-0.84-0.5-1.53-0.5c-0.6,0-1.06,0.13-1.38,0.4c-0.33,0.27-0.49,0.61-0.49,1.03
			c0,0.39,0.18,0.71,0.56,0.95c0.37,0.24,1,0.45,1.88,0.62c0.88,0.18,1.62,0.37,2.23,0.59c1.87,0.69,2.8,1.87,2.8,3.56
			c0,1.21-0.52,2.18-1.55,2.93c-1.04,0.75-2.37,1.12-4.01,1.12c-1.11,0-2.09-0.2-2.95-0.59c-0.86-0.4-1.53-0.94-2.02-1.63
			c-0.49-0.69-0.73-1.43-0.73-2.23h3.35c0.03,0.63,0.27,1.11,0.7,1.44c0.43,0.33,1.01,0.5,1.74,0.5c0.68,0,1.19-0.13,1.53-0.39
			C145.51,47.68,145.68,47.35,145.68,46.93z"/>
		<path class="st1" d="M165.3,50.59c-0.16-0.32-0.28-0.71-0.36-1.19c-0.86,0.95-1.97,1.43-3.34,1.43c-1.3,0-2.37-0.37-3.22-1.13
			c-0.85-0.75-1.28-1.7-1.28-2.84c0-1.4,0.52-2.48,1.56-3.23c1.04-0.75,2.54-1.13,4.51-1.14h1.63v-0.76c0-0.61-0.16-1.1-0.47-1.47
			c-0.31-0.37-0.81-0.55-1.49-0.55c-0.6,0-1.06,0.14-1.4,0.43c-0.34,0.29-0.51,0.68-0.51,1.17h-3.53c0-0.77,0.24-1.48,0.71-2.13
			c0.47-0.65,1.14-1.16,2.01-1.54s1.83-0.56,2.91-0.56c1.63,0,2.93,0.41,3.88,1.23c0.96,0.82,1.44,1.97,1.44,3.46v5.74
			c0.01,1.26,0.18,2.21,0.53,2.85v0.21H165.3z M162.38,48.13c0.52,0,1-0.12,1.44-0.35c0.44-0.23,0.77-0.54,0.98-0.94v-2.28h-1.32
			c-1.77,0-2.71,0.61-2.83,1.83l-0.01,0.21c0,0.44,0.15,0.8,0.46,1.09C161.42,47.99,161.84,48.13,162.38,48.13z"/>
		<path class="st1" d="M174.38,37.35l0.11,1.48c0.94-1.15,2.21-1.72,3.8-1.72c1.71,0,2.87,0.67,3.51,2.02
			c0.93-1.35,2.26-2.02,3.98-2.02c1.44,0,2.5,0.42,3.2,1.25c0.7,0.84,1.05,2.09,1.05,3.77v8.45h-3.55v-8.44
			c0-0.75-0.15-1.3-0.44-1.65c-0.29-0.35-0.81-0.52-1.55-0.52c-1.06,0-1.79,0.51-2.2,1.52l0.01,9.09h-3.54v-8.43
			c0-0.77-0.15-1.32-0.45-1.66c-0.3-0.34-0.82-0.51-1.54-0.51c-1,0-1.73,0.42-2.18,1.25v9.36h-3.54V37.35H174.38z"/>
		<path class="st1" d="M192.73,33.93c0-0.53,0.18-0.97,0.53-1.31c0.36-0.34,0.84-0.51,1.45-0.51c0.6,0,1.08,0.17,1.44,0.51
			c0.36,0.34,0.54,0.78,0.54,1.31c0,0.54-0.18,0.98-0.54,1.32c-0.36,0.34-0.84,0.51-1.44,0.51s-1.07-0.17-1.44-0.51
			C192.91,34.91,192.73,34.47,192.73,33.93z M196.48,50.59h-3.55V37.35h3.55V50.59z"/>
		<path class="st1" d="M206.56,46.93c0-0.43-0.21-0.77-0.64-1.02c-0.43-0.25-1.12-0.47-2.06-0.67c-3.15-0.66-4.72-2-4.72-4.01
			c0-1.17,0.49-2.15,1.46-2.94c0.97-0.79,2.25-1.18,3.82-1.18c1.68,0,3.02,0.4,4.03,1.19c1.01,0.79,1.51,1.82,1.51,3.08h-3.54
			c0-0.51-0.16-0.92-0.49-1.25c-0.33-0.33-0.84-0.5-1.53-0.5c-0.6,0-1.06,0.13-1.38,0.4c-0.33,0.27-0.49,0.61-0.49,1.03
			c0,0.39,0.19,0.71,0.56,0.95c0.37,0.24,1,0.45,1.88,0.62c0.88,0.18,1.62,0.37,2.23,0.59c1.87,0.69,2.8,1.87,2.8,3.56
			c0,1.21-0.52,2.18-1.55,2.93c-1.04,0.75-2.37,1.12-4.01,1.12c-1.11,0-2.09-0.2-2.95-0.59c-0.86-0.4-1.54-0.94-2.02-1.63
			c-0.49-0.69-0.73-1.43-0.73-2.23h3.35c0.03,0.63,0.27,1.11,0.7,1.44c0.43,0.33,1.01,0.5,1.74,0.5c0.68,0,1.19-0.13,1.54-0.39
			C206.39,47.68,206.56,47.35,206.56,46.93z"/>
	</g>
</g>
</svg>
